<svg width="30" height="27" viewBox="0 0 30 27" fill="none" xmlns="http://www.w3.org/2000/svg">
<path d="M3.31291 3.42229H7.66705L10.5698 0.519531H19.2781L22.1808 3.42229H26.535C27.3048 3.42229 28.0432 3.72811 28.5875 4.27249C29.1319 4.81686 29.4377 5.55519 29.4377 6.32505V23.7416C29.4377 24.5114 29.1319 25.2498 28.5875 25.7941C28.0432 26.3385 27.3048 26.6443 26.535 26.6443H3.31291C2.54305 26.6443 1.80473 26.3385 1.26035 25.7941C0.715982 25.2498 0.410156 24.5114 0.410156 23.7416V6.32505C0.410156 5.55519 0.715982 4.81686 1.26035 4.27249C1.80473 3.72811 2.54305 3.42229 3.31291 3.42229ZM14.9239 7.77642C12.9993 7.77642 11.1535 8.54099 9.79255 9.90192C8.43161 11.2629 7.66705 13.1087 7.66705 15.0333C7.66705 16.958 8.43161 18.8038 9.79255 20.1647C11.1535 21.5256 12.9993 22.2902 14.9239 22.2902C16.8486 22.2902 18.6944 21.5256 20.0553 20.1647C21.4163 18.8038 22.1808 16.958 22.1808 15.0333C22.1808 13.1087 21.4163 11.2629 20.0553 9.90192C18.6944 8.54099 16.8486 7.77642 14.9239 7.77642ZM14.9239 10.6792C16.0787 10.6792 17.1862 11.1379 18.0028 11.9545C18.8193 12.771 19.2781 13.8785 19.2781 15.0333C19.2781 16.1881 18.8193 17.2956 18.0028 18.1122C17.1862 18.9287 16.0787 19.3875 14.9239 19.3875C13.7692 19.3875 12.6617 18.9287 11.8451 18.1122C11.0285 17.2956 10.5698 16.1881 10.5698 15.0333C10.5698 13.8785 11.0285 12.771 11.8451 11.9545C12.6617 11.1379 13.7692 10.6792 14.9239 10.6792Z" fill="#1D1D1D"/>
</svg>
