<svg width="24" height="24" viewBox="0 0 24 24" fill="none" xmlns="http://www.w3.org/2000/svg">
<path d="M0.75 18.5617V23.2491H5.4375L19.2625 9.42415L14.575 4.73665L0.75 18.5617ZM22.8875 5.79915C23.0034 5.68351 23.0953 5.54615 23.158 5.39493C23.2208 5.24371 23.2531 5.08161 23.2531 4.9179C23.2531 4.75419 23.2208 4.59209 23.158 4.44087C23.0953 4.28965 23.0034 4.15229 22.8875 4.03665L19.9625 1.11165C19.8469 0.995769 19.7095 0.903835 19.5583 0.841108C19.4071 0.778381 19.245 0.746094 19.0813 0.746094C18.9175 0.746094 18.7554 0.778381 18.6042 0.841108C18.453 0.903835 18.3156 0.995769 18.2 1.11165L15.9125 3.39915L20.6 8.08665L22.8875 5.79915Z" fill="#1D1D1D"/>
</svg>
