<svg width="81" height="40" viewBox="0 0 81 40" fill="none" xmlns="http://www.w3.org/2000/svg">
<path d="M2.46641 40H77.9272C79.9211 40 81.0877 37.7534 79.9406 36.1224L64.5154 14.1897C63.6866 13.0112 62.0273 12.7933 60.9223 13.7179L49.626 23.1699C48.6481 23.9881 47.2074 23.9242 46.3058 23.0227L30.6278 7.34469C29.6413 6.35814 28.0328 6.38792 27.0834 7.41031L0.66261 35.8635C-0.799903 37.4385 0.31708 40 2.46641 40Z" fill="white"/>
<path d="M55.2831 6.46154C55.2831 10.0301 52.3902 12.9231 48.8216 12.9231C45.253 12.9231 42.36 10.0301 42.36 6.46154C42.36 2.89293 45.253 0 48.8216 0C52.3902 0 55.2831 2.89293 55.2831 6.46154Z" fill="white"/>
</svg>
