<svg width="18" height="18" viewBox="0 0 18 18" fill="none" xmlns="http://www.w3.org/2000/svg">
<path d="M0 14.2485V17.9985H3.75L14.81 6.93854L11.06 3.18854L0 14.2485ZM17.71 4.03854C17.8027 3.94603 17.8763 3.83614 17.9264 3.71516C17.9766 3.59419 18.0024 3.46451 18.0024 3.33354C18.0024 3.20257 17.9766 3.07289 17.9264 2.95191C17.8763 2.83094 17.8027 2.72105 17.71 2.62854L15.37 0.288538C15.2775 0.195834 15.1676 0.122287 15.0466 0.0721052C14.9257 0.0219237 14.796 -0.00390625 14.665 -0.00390625C14.534 -0.00390625 14.4044 0.0219237 14.2834 0.0721052C14.1624 0.122287 14.0525 0.195834 13.96 0.288538L12.13 2.11854L15.88 5.86854L17.71 4.03854Z" fill="#444444"/>
</svg>
